# xmcd
#
# Track frame offsets:
# 150
# 12805
# 25662
# 39632
# 49100
# 60342
# 70282
# 82515
# 92525
# 103510
# 114940
# 128000
# 137085
#
# Disc length: 1990 seconds
#
#
# Revision: 2
# Processed by: cddbd v1.5.1PL2 Copyright (c) Steve Scherf et al.
# Submitted via: FreeRIP 2.942 
#
DISCID=9207c40d
DTITLE=Stompin' Tom Connors - Stompin' Tom and The Hockey Song
DYEAR=1900
DGENRE=
TTITLE0=The Consumer
TTITLE1=The Last Fatal Duel
TTITLE2=The Curse of The Marc Guylaine
TTITLE3=Blue Spell
TTITLE4=Singin' Away The Blues
TTITLE5=The Hockey Song
TTITLE6=The Maritime Waltz
TTITLE7=Gaspe Belle Faye
TTITLE8=Where Would I Be?
TTITLE9=True, True Love
TTITLE10=The Piggy Back Race
TTITLE11=Your Loving Smile
TTITLE12=Mr. Engineer
EXTD=
EXTT0=
EXTT1=
EXTT2=
EXTT3=
EXTT4=
EXTT5=
EXTT6=
EXTT7=
EXTT8=
EXTT9=
EXTT10=
EXTT11=
EXTT12=
PLAYORDER=
